<?xml version="1.0" encoding="UTF-8"?>
<svg xmlns="http://www.w3.org/2000/svg" viewBox="0 0 87.04 86.61">
  <defs>
    <style>
      .cls-1 { fill: none; stroke: #fff; stroke-linecap: round; stroke-linejoin: round; }
    </style>
  </defs>
  <rect class="cls-1" x="21" y="21" width="45" height="45" rx="4" ry="4"/>
  <rect class="cls-1" x="33" y="33" width="21" height="21" rx="2" ry="2"/>
  <line class="cls-1" x1="35" y1="6" x2="35" y2="21"/>
  <line class="cls-1" x1="43.5" y1="6" x2="43.5" y2="21"/>
  <line class="cls-1" x1="52" y1="6" x2="52" y2="21"/>
  <line class="cls-1" x1="35" y1="66" x2="35" y2="81"/>
  <line class="cls-1" x1="43.5" y1="66" x2="43.5" y2="81"/>
  <line class="cls-1" x1="52" y1="66" x2="52" y2="81"/>
  <line class="cls-1" x1="6" y1="35" x2="21" y2="35"/>
  <line class="cls-1" x1="6" y1="43.5" x2="21" y2="43.5"/>
  <line class="cls-1" x1="6" y1="52" x2="21" y2="52"/>
  <line class="cls-1" x1="66" y1="35" x2="81" y2="35"/>
  <line class="cls-1" x1="66" y1="43.5" x2="81" y2="43.5"/>
  <line class="cls-1" x1="66" y1="52" x2="81" y2="52"/>
</svg>
