<?xml version="1.0" encoding="UTF-8"?>
<svg xmlns="http://www.w3.org/2000/svg" viewBox="0 0 87.04 86.61">
  <defs>
    <style>
      .cls-1 { fill: none; stroke: #fff; stroke-linecap: round; stroke-linejoin: round; }
    </style>
  </defs>
  <circle class="cls-1" cx="26" cy="26" r="10"/>
  <circle class="cls-1" cx="26" cy="26" r="3"/>
  <line class="cls-1" x1="26" y1="10" x2="26" y2="16"/>
  <line class="cls-1" x1="26" y1="36" x2="26" y2="42"/>
  <line class="cls-1" x1="10" y1="26" x2="16" y2="26"/>
  <line class="cls-1" x1="36" y1="26" x2="42" y2="26"/>
  <line class="cls-1" x1="14.7" y1="14.7" x2="19" y2="19"/>
  <line class="cls-1" x1="33" y1="33" x2="37.3" y2="37.3"/>
  <line class="cls-1" x1="37.3" y1="14.7" x2="33" y2="19"/>
  <line class="cls-1" x1="19" y1="33" x2="14.7" y2="37.3"/>
  <rect class="cls-1" x="52" y="52" width="30" height="30" rx="3" ry="3"/>
  <rect class="cls-1" x="60" y="60" width="14" height="14" rx="2" ry="2"/>
  <line class="cls-1" x1="60" y1="45" x2="60" y2="52"/>
  <line class="cls-1" x1="67" y1="45" x2="67" y2="52"/>
  <line class="cls-1" x1="74" y1="45" x2="74" y2="52"/>
  <line class="cls-1" x1="45" y1="60" x2="52" y2="60"/>
  <line class="cls-1" x1="45" y1="67" x2="52" y2="67"/>
  <path class="cls-1" d="M38,42 L46,50"/>
</svg>
